# xmcd CD database file
#
# Track frame offsets:
#	150
#	19051
#	36703
#	54946
#	71146
#	84776
#	99783
#	111526
#	131657
#	146853
#	164936
#	181632
#	203318
#	220441
#	237905
#	256389
#
# Disc length: 3619 seconds
#
# Revision: 2
# Processed by: cddbd v1.4b41PL1 Copyright (c) Steve Scherf et al.
# Submitted via: Feurio! 1.50.2ß - http://www.feurio.com
#
DISCID=e80e2110
DTITLE=Various Artist - Simply the Best of the 80's CD2
DYEAR=1900
DGENRE=
TTITLE0=Opus - Life is Life
TTITLE1=Aneka - Japanese boy
TTITLE2=Ray Parker Jnr. - Ghostbusters
TTITLE3=Bananarama - Venus
TTITLE4=Living in a Box - Living in a Box
TTITLE5=Kylie Minogue - I should be so Lucky
TTITLE6=Bucks Fizz - Making your Mind up
TTITLE7=The Communards - Don't leave me this way
TTITLE8=Kim Wilde - Kids in America
TTITLE9=Blow Monkeys - It doesn't have to be this way
TTITLE10=Howard Jones - What is Love?
TTITLE11=Starship - We built this City
TTITLE12=Status Quo - What you're proposing
TTITLE13=David Hasselhof - Looking for Freedom
TTITLE14=Billy Ocean - When the going get tough, The Tough get going
TTITLE15=Kaoma - Lambada
EXTD=
EXTT0=
EXTT1=
EXTT2=
EXTT3=
EXTT4=
EXTT5=
EXTT6=
EXTT7=
EXTT8=
EXTT9=
EXTT10=
EXTT11=
EXTT12=
EXTT13=
EXTT14=
EXTT15=
PLAYORDER=
